<svg width="24" height="24" viewBox="0 0 24 24" fill="none" xmlns="http://www.w3.org/2000/svg">
<path fill-rule="evenodd" clip-rule="evenodd" d="M13.5137 3.80601C14.5868 2.73125 16.3274 2.7306 17.4013 3.80454L19.8932 6.29639C20.958 7.36117 20.969 9.08493 19.918 10.1633L10.6848 19.6366C9.97932 20.3604 9.01165 20.7686 8.00122 20.7686L5.24908 20.7684C3.96983 20.7684 2.94821 19.702 3.00202 18.4229L3.12017 15.6139C3.15967 14.6749 3.54995 13.7849 4.21378 13.12L13.5137 3.80601ZM16.3415 4.866C15.8533 4.37784 15.0622 4.37814 14.5744 4.86667L12.9113 6.53227L17.1911 10.8121L18.8446 9.11554C19.3223 8.62537 19.3173 7.84184 18.8333 7.35785L16.3415 4.866ZM5.27444 14.1807L11.8514 7.59374L16.144 11.8863L9.61146 18.5888C9.18814 19.0231 8.60755 19.268 8.00129 19.268L5.24914 19.2679C4.82273 19.2679 4.48219 18.9124 4.50012 18.486L4.61828 15.677C4.64197 15.1136 4.87614 14.5796 5.27444 14.1807ZM20.5148 20.6953C20.9289 20.6953 21.2645 20.3594 21.2645 19.945C21.2645 19.5306 20.9289 19.1947 20.5148 19.1947H14.3931C13.979 19.1947 13.6434 19.5306 13.6434 19.945C13.6434 20.3594 13.979 20.6953 14.3931 20.6953H20.5148Z" fill="#6BD9E9"/>
</svg>
