<svg width="240" height="335" viewBox="0 0 240 335" fill="none" xmlns="http://www.w3.org/2000/svg">
<mask id="path-1-inside-1_269_119" fill="white">
<path fill-rule="evenodd" clip-rule="evenodd" d="M214.886 165.917C214.859 165.801 214.831 165.685 214.803 165.569C214.776 165.454 214.748 165.338 214.719 165.222L198.323 96.7855C198.306 96.7177 198.29 96.6499 198.274 96.5821C198.258 96.5142 198.242 96.4465 198.225 96.3787L198.152 96.0752L198.151 96.0755C187.933 54.6308 146.156 29.1472 104.582 39.1081C63.0078 49.0689 37.3155 90.7174 46.9883 132.293L46.9863 132.293L63.9776 203.211L63.9916 203.208C74.5944 244.112 116.062 269.149 157.329 259.261C198.597 249.374 224.216 208.264 215.131 166.996L215.144 166.993L214.886 165.917Z"/>
</mask>
<path fill-rule="evenodd" clip-rule="evenodd" d="M214.886 165.917C214.859 165.801 214.831 165.685 214.803 165.569C214.776 165.454 214.748 165.338 214.719 165.222L198.323 96.7855C198.306 96.7177 198.29 96.6499 198.274 96.5821C198.258 96.5142 198.242 96.4465 198.225 96.3787L198.152 96.0752L198.151 96.0755C187.933 54.6308 146.156 29.1472 104.582 39.1081C63.0078 49.0689 37.3155 90.7174 46.9883 132.293L46.9863 132.293L63.9776 203.211L63.9916 203.208C74.5944 244.112 116.062 269.149 157.329 259.261C198.597 249.374 224.216 208.264 215.131 166.996L215.144 166.993L214.886 165.917Z" fill="#F9C9B6"/>
<path d="M214.886 165.917L210.992 166.831L210.994 166.84L210.996 166.849L214.886 165.917ZM214.719 165.222L210.83 166.154L210.832 166.163L210.834 166.172L214.719 165.222ZM198.323 96.7855L194.43 97.7076L194.433 97.7175L198.323 96.7855ZM198.225 96.3787L194.335 97.3108L194.338 97.321L198.225 96.3787ZM198.152 96.0752L202.042 95.1432L201.111 91.255L197.222 92.1849L198.152 96.0752ZM198.151 96.0755L194.267 97.0331L195.218 100.89L199.081 99.9659L198.151 96.0755ZM104.582 39.1081L103.65 35.2182L103.65 35.2182L104.582 39.1081ZM46.9883 132.293L47.9223 136.182L51.7842 135.255L50.8842 131.386L46.9883 132.293ZM46.9863 132.293L46.0523 128.404L42.1649 129.337L43.0964 133.225L46.9863 132.293ZM63.9776 203.211L60.0877 204.143L61.0201 208.035L64.9113 207.101L63.9776 203.211ZM63.9916 203.208L67.8636 202.204L66.8779 198.401L63.058 199.318L63.9916 203.208ZM157.329 259.261L156.397 255.371L156.397 255.371L157.329 259.261ZM215.131 166.996L214.2 163.106L210.381 164.021L211.225 167.856L215.131 166.996ZM215.144 166.993L216.075 170.883L219.966 169.951L219.034 166.061L215.144 166.993ZM218.78 165.002C218.751 164.881 218.722 164.759 218.693 164.637L210.914 166.502C210.94 166.611 210.966 166.721 210.992 166.831L218.78 165.002ZM218.693 164.637C218.664 164.516 218.635 164.395 218.605 164.273L210.834 166.172C210.861 166.281 210.887 166.391 210.914 166.502L218.693 164.637ZM194.433 97.7175L210.83 166.154L218.609 164.29L202.212 95.8535L194.433 97.7175ZM202.215 95.8634C202.198 95.7928 202.181 95.7216 202.164 95.65L194.384 97.5142C194.4 97.5781 194.415 97.6425 194.43 97.7076L202.215 95.8634ZM202.164 95.65C202.147 95.5791 202.13 95.5079 202.113 95.4364L194.338 97.321C194.353 97.3851 194.369 97.4494 194.384 97.5142L202.164 95.65ZM194.262 97.0072L194.335 97.3108L202.115 95.4467L202.042 95.1432L194.262 97.0072ZM199.081 99.9659L199.083 99.9655L197.222 92.1849L197.221 92.1852L199.081 99.9659ZM202.035 95.118C191.291 51.5398 147.364 24.7447 103.65 35.2182L105.514 42.998C144.949 33.5498 184.575 57.7219 194.267 97.0331L202.035 95.118ZM103.65 35.2182C59.936 45.6917 32.9216 89.4836 43.0923 133.199L50.8842 131.386C41.7094 91.9513 66.0796 52.4461 105.514 42.998L103.65 35.2182ZM47.9204 136.183L47.9223 136.182L46.0542 128.403L46.0523 128.404L47.9204 136.183ZM67.8676 202.279L50.8763 131.361L43.0964 133.225L60.0877 204.143L67.8676 202.279ZM63.058 199.318L63.044 199.322L64.9113 207.101L64.9252 207.097L63.058 199.318ZM60.1195 204.211C71.2685 247.223 114.869 273.548 158.261 263.151L156.397 255.371C117.254 264.75 77.9204 241.002 67.8636 202.204L60.1195 204.211ZM158.261 263.151C201.653 252.755 228.591 209.53 219.038 166.136L211.225 167.856C219.842 206.999 195.541 245.993 156.397 255.371L158.261 263.151ZM214.212 163.103L214.2 163.106L216.063 170.886L216.075 170.883L214.212 163.103ZM210.996 166.849L211.254 167.925L219.034 166.061L218.776 164.985L210.996 166.849Z" fill="black" mask="url(#path-1-inside-1_269_119)"/>
<path d="M183.807 200.178C184.873 196.321 185.248 192.311 184.92 188.331C184.75 186.263 182.636 185.112 180.845 185.818C176.616 187.484 162.627 192.783 152.763 194.14C141.94 195.629 125.55 193.821 120.806 193.232C118.877 192.992 117.157 194.65 117.49 196.665C118.142 200.608 119.484 204.409 121.459 207.891C123.661 211.775 126.606 215.188 130.127 217.933C133.648 220.679 137.676 222.704 141.979 223.893C146.283 225.083 150.779 225.413 155.21 224.864C159.641 224.316 163.921 222.901 167.805 220.698C171.689 218.496 175.101 215.55 177.847 212.029C180.593 208.508 182.618 204.481 183.807 200.178Z" fill="black" stroke="black" stroke-width="4"/>
<mask id="mask0_269_119" style="mask-type:alpha" maskUnits="userSpaceOnUse" x="119" y="187" width="65" height="37">
<path d="M182.793 187.193C183.309 191.363 182.999 195.594 181.879 199.645C180.76 203.695 178.854 207.486 176.27 210.8C173.686 214.113 170.474 216.886 166.818 218.958C163.163 221.031 159.135 222.364 154.964 222.88C150.794 223.396 146.563 223.085 142.512 221.966C138.462 220.846 134.671 218.94 131.357 216.356C128.043 213.772 125.271 210.56 123.198 206.905C121.126 203.249 119.793 199.221 119.277 195.051L182.793 187.193Z" fill="#171921"/>
</mask>
<g mask="url(#mask0_269_119)">
<circle cx="155.522" cy="227.315" r="21.5" transform="rotate(-7.05286 155.522 227.315)" fill="#FC909F"/>
</g>
<path d="M160 104.214C165.667 101.548 179 99.1143 187 110.714" stroke="black" stroke-width="4" stroke-linecap="round"/>
<path d="M84.5791 129.521C86.6497 123.61 94.2612 112.396 108.142 114.822" stroke="black" stroke-width="4" stroke-linecap="round"/>
<path opacity="0.25" d="M187.986 80.1756C179.986 73.7756 166.153 73.1758 160.486 73.6758L152.486 47.1758C166.086 50.3758 184.486 71.1758 187.986 80.1756Z" fill="black"/>
<path d="M85.7923 14.7636C85.7923 14.7636 91.5301 10.802 115.746 4.70097C139.963 -1.40007 148.792 0.983287 148.792 0.983287L160.581 73.815C160.581 73.815 152.542 73.6416 132.548 78.0085C112.555 82.3754 102.986 87.6748 102.986 87.6748L85.7923 14.7636Z" fill="black"/>
<path d="M48.9855 89.6758C42.1855 48.0758 72.3188 21.5091 85.9855 14.1758L102.985 87.6758C83.7855 48.0758 57.6521 72.5091 48.9855 89.6758Z" fill="black"/>
<path opacity="0.25" d="M67.4855 133.675C60.2855 106.475 89.4855 91.8415 102.985 87.6749C95.9855 71.3415 79.9854 56.6749 60.4854 74.6756C42.4854 105.175 49.4855 128.676 54.9855 146.675L67.4855 133.675Z" fill="black"/>
<path fill-rule="evenodd" clip-rule="evenodd" d="M98.2867 145.073C98.401 145.886 99.4342 146.067 100.009 145.481C102.474 142.965 106.264 141.116 110.663 140.594C113.258 140.285 115.754 140.475 117.979 141.066C118.733 141.266 119.474 140.629 119.21 139.895C117.545 135.25 112.845 132.196 107.736 132.803C101.794 133.509 97.5505 138.898 98.2564 144.839C98.2657 144.917 98.2758 144.995 98.2867 145.073Z" fill="black"/>
<path fill-rule="evenodd" clip-rule="evenodd" d="M162.385 135.073C162.498 135.886 163.531 136.067 164.106 135.482C166.549 132.996 170.298 131.17 174.648 130.653C177.213 130.348 179.68 130.535 181.88 131.117C182.634 131.316 183.375 130.679 183.111 129.946C181.456 125.352 176.804 122.335 171.748 122.935C165.862 123.635 161.658 128.973 162.357 134.859C162.366 134.93 162.375 135.002 162.385 135.073Z" fill="black"/>
<path d="M141.277 150.926C146.497 148.94 155.601 149.54 155.04 159.639C154.542 168.615 145.333 170.397 142.4 168.304" stroke="black" stroke-width="4"/>
<path d="M65.5 152.176C63.17 151.408 60.6547 151 58.08 151C47.5866 151 39.0801 157.5 40.08 169.5C41.1216 182 48.5866 186.5 59.08 186.5C60.2476 186.5 61.3906 186.397 62.5 186.201C63.7105 185.987 64.8811 185.661 66 185.235" stroke="black" stroke-width="8"/>
<path d="M66.5 185.036C64.2204 185.979 61.7127 186.5 59.08 186.5C48.5866 186.5 41.1216 182 40.08 169.5C39.0801 157.5 47.5866 151 58.08 151C61.2175 151 64.2667 151.606 67 152.73L66.5 185.036Z" fill="#F9C9B6"/>
<path d="M62.5 159.5C58.5 157.667 49.7 156.7 46.5 167.5" stroke="black" stroke-width="4"/>
<path d="M52 160C54.1667 161.833 58.3 167.5 57.5 175.5" stroke="black" stroke-width="4"/>
</svg>
